<mxfile host="app.diagrams.net" agent="Mozilla/5.0 (Windows NT 10.0; Win64; x64) AppleWebKit/537.36 (KHTML, like Gecko) Chrome/137.0.0.0 Safari/537.36" version="27.1.5">
  <diagram id="kE2jghSBiupHgnR7N2Tf" name="Page-1">
    <mxGraphModel dx="1137" dy="653" grid="1" gridSize="10" guides="1" tooltips="1" connect="1" arrows="1" fold="1" page="1" pageScale="1" pageWidth="1200" pageHeight="1600" math="0" shadow="0">
      <root>
        <mxCell id="0" />
        <mxCell id="1" parent="0" />
        <mxCell id="LtcF3z42R_0qpBEDfMV6-6" style="edgeStyle=orthogonalEdgeStyle;rounded=0;orthogonalLoop=1;jettySize=auto;html=1;exitX=0.5;exitY=1;exitDx=0;exitDy=0;" edge="1" parent="1" source="LtcF3z42R_0qpBEDfMV6-1" target="LtcF3z42R_0qpBEDfMV6-5">
          <mxGeometry relative="1" as="geometry" />
        </mxCell>
        <mxCell id="LtcF3z42R_0qpBEDfMV6-11" style="edgeStyle=orthogonalEdgeStyle;rounded=0;orthogonalLoop=1;jettySize=auto;html=1;exitX=0.5;exitY=1;exitDx=0;exitDy=0;" edge="1" parent="1" source="LtcF3z42R_0qpBEDfMV6-1" target="LtcF3z42R_0qpBEDfMV6-7">
          <mxGeometry relative="1" as="geometry" />
        </mxCell>
        <mxCell id="LtcF3z42R_0qpBEDfMV6-12" style="edgeStyle=orthogonalEdgeStyle;rounded=0;orthogonalLoop=1;jettySize=auto;html=1;exitX=0.5;exitY=1;exitDx=0;exitDy=0;entryX=0.5;entryY=0;entryDx=0;entryDy=0;" edge="1" parent="1" source="LtcF3z42R_0qpBEDfMV6-1" target="LtcF3z42R_0qpBEDfMV6-9">
          <mxGeometry relative="1" as="geometry" />
        </mxCell>
        <mxCell id="LtcF3z42R_0qpBEDfMV6-13" style="edgeStyle=orthogonalEdgeStyle;rounded=0;orthogonalLoop=1;jettySize=auto;html=1;exitX=0.5;exitY=1;exitDx=0;exitDy=0;entryX=0.5;entryY=0;entryDx=0;entryDy=0;" edge="1" parent="1" source="LtcF3z42R_0qpBEDfMV6-1" target="LtcF3z42R_0qpBEDfMV6-2">
          <mxGeometry relative="1" as="geometry" />
        </mxCell>
        <mxCell id="LtcF3z42R_0qpBEDfMV6-1" value="Outreach" style="rounded=1;whiteSpace=wrap;html=1;" vertex="1" parent="1">
          <mxGeometry x="430" y="150" width="120" height="60" as="geometry" />
        </mxCell>
        <mxCell id="LtcF3z42R_0qpBEDfMV6-2" value="Prospecting" style="rounded=1;whiteSpace=wrap;html=1;" vertex="1" parent="1">
          <mxGeometry x="190" y="280" width="120" height="60" as="geometry" />
        </mxCell>
        <mxCell id="LtcF3z42R_0qpBEDfMV6-5" value="Cold DM" style="rounded=1;whiteSpace=wrap;html=1;" vertex="1" parent="1">
          <mxGeometry x="350" y="280" width="120" height="60" as="geometry" />
        </mxCell>
        <mxCell id="LtcF3z42R_0qpBEDfMV6-7" value="Cold Email" style="rounded=1;whiteSpace=wrap;html=1;" vertex="1" parent="1">
          <mxGeometry x="510" y="280" width="120" height="60" as="geometry" />
        </mxCell>
        <mxCell id="LtcF3z42R_0qpBEDfMV6-9" value="Cold Invite" style="rounded=1;whiteSpace=wrap;html=1;" vertex="1" parent="1">
          <mxGeometry x="670" y="280" width="120" height="60" as="geometry" />
        </mxCell>
      </root>
    </mxGraphModel>
  </diagram>
</mxfile>
